<svg version="1.1" xmlns="http://www.w3.org/2000/svg"
     viewBox="0 0 100 100" width="100" height="100">
  <g transform="scale(0.353)">
    <path style="fill:none;" d="M268.727,59.362c-3.471-2.903-7.939-4.655-12.819-4.655H27.5c-4.88,0-9.347,1.752-12.819,4.655
      l127.023,82.341L268.727,59.362z"/>
    <path style="fill:none;" d="M268.727,59.362l-127.023,82.341L14.681,59.362C10.294,63.031,7.5,68.542,7.5,74.708v133.991
      c0,11.046,8.954,20,20,20h228.409c11.046,0,20-8.954,20-20V74.708C275.909,68.542,273.114,63.031,268.727,59.362z"/>
    <path style="fill:#ffffff;" d="M283.408,208.699V74.708c0-15.279-12.421-27.5-27.5-27.5H27.5c-15.092,0-27.5,12.235-27.5,27.5
      v133.991c0,15.104,12.285,27.5,27.5,27.5h228.408C271.132,236.199,283.408,223.792,283.408,208.699z M199.091,113.441
      l68.088-44.137c0.8,1.666,1.229,3.507,1.229,5.404v131.436L199.091,113.441z M15,206.145V74.708c0-1.897,0.429-3.738,1.229-5.404
      l68.088,44.137L15,206.145z M141.704,132.766L32.859,62.207H250.55L141.704,132.766z M27.5,221.199
      c-1.555,0-3.039-0.299-4.414-0.82l73.846-98.76l40.692,26.378c2.483,1.609,5.678,1.608,8.16,0l40.692-26.378l73.846,98.76
      c-1.375,0.521-2.859,0.82-4.414,0.82H27.5z"/>
  </g>
    <g transform="translate(27 55) scale(4)">
      <path fill="#FFFFFF"
      d="M.48 3.04a.448.448 0 0 1-.236-.068.434.434 0 0 1-.168-.216.495.495 0 0 1-.028-.108.878.878 0 0 1-.008-.116c0-.037.007-.056.02-.056.016 0 .024.01.024.032 0 .125.03.22.092.284a.32.32 0 0 0 .236.096.518.518 0 0 0 .272-.08 1.09 1.09 0 0 0 .244-.204 2.95 2.95 0 0 0 .308-.404c.085-.139.163-.28.232-.424.072-.147.144-.299.216-.456.037-.08.083-.155.136-.224a.74.74 0 0 1 .184-.172h-.12c-.04 0-.096.003-.168.008-.07.005-.14.017-.212.036a.427.427 0 0 0-.18.092.198.198 0 0 0-.064.172c.003.021.01.05.024.088l.024.064-.04.032A6.32 6.32 0 0 1 1.14 1.2a.314.314 0 0 1-.032-.084.484.484 0 0 1 .004-.104A.2.2 0 0 1 1.176.9.32.32 0 0 1 1.34.832a1.5 1.5 0 0 1 .22-.016c.072 0 .141.003.208.008s.121.008.164.008l.64-.004-.052.06c-.027 0-.065.003-.116.008-.048.003-.099.01-.152.02a.537.537 0 0 0-.22.108.76.76 0 0 0-.212.236l-.036.06c-.04.09-.085.199-.136.324-.05.125-.108.257-.172.396-.061.139-.13.273-.204.404-.075.128-.157.24-.248.336a.867.867 0 0 1-.252.184.653.653 0 0 1-.292.076Zm1.14.02c-.01 0-.01-.012 0-.036a.556.556 0 0 0 .037-.08c.013-.03.027-.061.04-.096a16.566 16.566 0 0 0 .18-.448l.076-.196L2 2.096a5.956 5.956 0 0 0-.384.456c-.008.01-.015.016-.02.016-.005 0-.008-.007-.008-.02 0-.021.007-.041.02-.06l.168-.216c.064-.08.121-.153.172-.22.05-.07.083-.115.096-.136l.128-.024a.262.262 0 0 0 .12-.044c.008-.008.016-.012.024-.012.005 0 .008.005.008.016.003.008 0 .017-.008.028a1.092 1.092 0 0 0-.084.132 28.723 28.723 0 0 0-.244.448c.032-.043.067-.084.104-.124L2.2 2.22a2.43 2.43 0 0 1 .132-.12c.056-.048.115-.092.176-.132a.392.392 0 0 1 .188-.072h.024c.059 0 .088.021.088.064 0 .032-.017.075-.052.128a4.504 4.504 0 0 0-.204.368c-.037.077-.07.15-.1.22a.454.454 0 0 0-.04.148c0 .037.019.056.056.056.045 0 .095-.023.148-.068.056-.045.116-.103.18-.172.064-.072.128-.148.192-.228.005.005.008.015.008.028a.096.096 0 0 1-.02.056 3.644 3.644 0 0 1-.14.176l-.132.152a1.171 1.171 0 0 1-.124.116.839.839 0 0 1-.104.06.284.284 0 0 1-.128.032c-.048 0-.081-.012-.1-.036A.163.163 0 0 1 2.22 2.9a.43.43 0 0 1 .024-.136 1.607 1.607 0 0 1 .1-.236 12.147 12.147 0 0 0 .216-.44.094.094 0 0 0 .012-.04c0-.019-.015-.02-.044-.004a.937.937 0 0 0-.108.072c-.04.032-.077.064-.112.096l-.068.06c-.099.104-.185.22-.26.348a2.71 2.71 0 0 0-.184.388.303.303 0 0 0-.104.028.215.215 0 0 1-.072.024Zm.37.844a.579.579 0 0 1-.26-.052.253.253 0 0 1-.145-.148.075.075 0 0 1-.004-.024.089.089 0 0 1-.004-.028c0-.04.01-.085.028-.136l.06-.156c.008-.016.018-.024.028-.024.019 0 .024.013.016.04a.299.299 0 0 0-.028.128c0 .093.042.168.124.224.08.059.172.088.276.088.08 0 .158-.019.232-.056a.844.844 0 0 0 .308-.264c.08-.112.15-.225.212-.34.094-.179.174-.365.24-.56.07-.197.143-.392.22-.584h-.092a.269.269 0 0 0-.044.004l-.044.008-.008-.004c.006-.03.03-.055.076-.076a.277.277 0 0 1 .112-.036h.048a8.59 8.59 0 0 1 .14-.316 7.09 7.09 0 0 1 .18-.344c.064-.117.134-.224.208-.32A1.12 1.12 0 0 1 4.11.7a.766.766 0 0 1 .452-.144c.032 0 .063.01.092.032.032.019.047.048.044.088L4.685.82c0 .005-.004.01-.012.012-.008.003-.013.001-.016-.004A.158.158 0 0 0 4.57.712a.31.31 0 0 0-.16-.04.434.434 0 0 0-.272.096c-.08.064-.166.183-.26.356a6.731 6.731 0 0 0-.116.236c-.04.09-.08.184-.12.28-.04.096-.078.185-.116.268h.344a3.47 3.47 0 0 0 .06-.008c0 .01-.008.021-.024.032a.512.512 0 0 1-.224.08 2.489 2.489 0 0 1-.2 0l-.168.42a4.92 4.92 0 0 1-.168.384c-.05.112-.113.23-.188.356-.074.125-.16.244-.256.356a1.277 1.277 0 0 1-.32.272.77.77 0 0 1-.392.104Zm1.718-.896a.274.274 0 0 1-.116-.024c-.032-.019-.048-.057-.048-.116 0-.093.024-.187.072-.28a1.324 1.324 0 0 1 .3-.424 1.068 1.068 0 0 1 .36-.228.498.498 0 0 1 .188-.048c.042 0 .08.012.112.036.032.021.048.061.048.12 0 .09-.024.184-.072.28a1.788 1.788 0 0 1-.144.248 2.764 2.764 0 0 1-.072.092c-.024.027-.05.055-.08.084.098 0 .19-.028.272-.084a.958.958 0 0 0 .216-.212l.008-.008c.008 0 .012.008.012.024a.092.092 0 0 1-.016.052.89.89 0 0 1-.2.2.463.463 0 0 1-.272.084h-.032a.131.131 0 0 1-.032-.004.722.722 0 0 1-.504.208Zm.104-.068a.229.229 0 0 0 .12-.04.526.526 0 0 0 .104-.076c.045-.045.086-.093.124-.144a2.025 2.025 0 0 0 .216-.388.637.637 0 0 0 .056-.248c0-.061-.022-.092-.064-.092a.27.27 0 0 0-.128.044.594.594 0 0 0-.108.08c-.09.093-.167.195-.228.304a3.867 3.867 0 0 0-.112.216.529.529 0 0 0-.06.228v.032a.379.379 0 0 1 .008.028c.01.037.034.056.072.056Zm.914.12c-.01 0-.01-.012 0-.036a.556.556 0 0 0 .036-.08 16.566 16.566 0 0 0 .22-.544l.076-.196.048-.108a5.956 5.956 0 0 0-.384.456c-.008.01-.014.016-.02.016-.005 0-.008-.007-.008-.02 0-.021.007-.041.02-.06l.168-.216c.064-.08.122-.153.172-.22.051-.07.083-.115.096-.136l.128-.024a.262.262 0 0 0 .12-.044c.008-.008.016-.012.024-.012.006 0 .008.005.008.016.003.008 0 .017-.008.028a1.092 1.092 0 0 0-.084.132 28.723 28.723 0 0 0-.244.448 8.191 8.191 0 0 1 .212-.24 2.43 2.43 0 0 1 .132-.12c.056-.048.115-.092.176-.132a.392.392 0 0 1 .188-.072h.024c.051 0 .076.019.076.056a.163.163 0 0 1-.012.056 6.373 6.373 0 0 1-.112.216l-.1.184.188-.188a2.43 2.43 0 0 1 .132-.12c.056-.048.115-.092.176-.132a.392.392 0 0 1 .188-.072h.024c.06 0 .088.021.088.064 0 .032-.017.075-.052.128a4.504 4.504 0 0 0-.212.376c-.04.08-.074.155-.104.224a.452.452 0 0 0-.044.152c0 .037.02.056.056.056.035 0 .08-.02.132-.06.056-.043.112-.093.168-.152a2.064 2.064 0 0 0 .204-.232.884.884 0 0 1 .032-.04c.006.005.008.015.008.028a.096.096 0 0 1-.02.056 2.821 2.821 0 0 1-.208.252 1.062 1.062 0 0 1-.212.184.561.561 0 0 1-.248.084.144.144 0 0 1-.08-.016.067.067 0 0 1-.04-.064c0-.037.01-.081.028-.132a3.793 3.793 0 0 1 .128-.276 12.147 12.147 0 0 0 .216-.44.094.094 0 0 0 .012-.04c0-.019-.014-.02-.044-.004a.937.937 0 0 0-.108.072c-.04.032-.077.064-.112.096a1.357 1.357 0 0 0-.232.244 2.665 2.665 0 0 0-.172.244.915.915 0 0 0-.112.232c-.026.024-.052.036-.076.036a.065.065 0 0 1-.048-.02.074.074 0 0 1-.016-.048c0-.053.016-.116.048-.188l.084-.184a12.147 12.147 0 0 0 .216-.44.094.094 0 0 0 .012-.04c0-.019-.014-.02-.044-.004a.937.937 0 0 0-.108.072c-.04.032-.077.064-.112.096l-.068.06a3.181 3.181 0 0 0-.18.204c-.053.07-.098.144-.136.224a5.827 5.827 0 0 0-.128.308.303.303 0 0 0-.104.028.215.215 0 0 1-.072.024Zm1.92-.052a.274.274 0 0 1-.117-.024c-.032-.019-.048-.057-.048-.116 0-.093.024-.187.072-.28a1.324 1.324 0 0 1 .3-.424 1.068 1.068 0 0 1 .36-.228.498.498 0 0 1 .188-.048c.043 0 .08.012.112.036.032.021.048.061.048.12 0 .09-.024.184-.072.28a1.788 1.788 0 0 1-.144.248 2.764 2.764 0 0 1-.072.092c-.024.027-.05.055-.08.084.099 0 .19-.028.272-.084a.958.958 0 0 0 .216-.212l.008-.008c.008 0 .012.008.012.024a.092.092 0 0 1-.016.052.89.89 0 0 1-.2.2.463.463 0 0 1-.272.084h-.032A.131.131 0 0 1 7.15 2.8a.722.722 0 0 1-.504.208Zm.103-.068a.229.229 0 0 0 .12-.04.526.526 0 0 0 .104-.076c.046-.045.087-.093.124-.144a2.025 2.025 0 0 0 .216-.388.637.637 0 0 0 .056-.248c0-.061-.021-.092-.064-.092a.27.27 0 0 0-.128.044.594.594 0 0 0-.108.08c-.09.093-.166.195-.228.304a3.867 3.867 0 0 0-.112.216.529.529 0 0 0-.06.228v.032a.379.379 0 0 1 .008.028c.011.037.035.056.072.056Zm.444-1.26c-.002 0-.005-.004-.008-.012-.002-.01-.002-.019 0-.024l.18-.144c.07-.056.14-.115.212-.176a.542.542 0 0 1 .084-.068.098.098 0 0 1 .044-.016c.008 0 .012.012.012.036a.369.369 0 0 1-.004.052c-.002.019-.006.03-.012.036a.667.667 0 0 1-.124.096 3.84 3.84 0 0 1-.196.116l-.188.104Zm.775 1.344a.13.13 0 0 1-.096-.04c-.027-.027-.04-.073-.04-.14 0-.059.004-.128.012-.208.01-.08.025-.161.044-.244.019-.085.04-.16.064-.224a4.047 4.047 0 0 1-.152.208l-.14.176c-.008.01-.015.016-.02.016-.005 0-.008-.007-.008-.02 0-.021.007-.041.02-.06a23.073 23.073 0 0 0 .372-.532c.03-.005.064-.013.104-.024a.197.197 0 0 0 .092-.044.088.088 0 0 1 .024-.012c.008 0 .012.005.012.016 0 .008-.004.017-.012.028a.877.877 0 0 0-.08.16 3.404 3.404 0 0 0-.152.5 1.143 1.143 0 0 0-.024.212c0 .043.007.073.02.092.013.016.03.024.052.024.03 0 .064-.015.104-.044a.63.63 0 0 0 .108-.092c.037-.04.079-.093.124-.16.048-.067.092-.137.132-.212a1.241 1.241 0 0 0 .128-.312.49.49 0 0 0 .008-.076.14.14 0 0 0-.012-.068c-.008-.013-.015-.021-.02-.024-.016-.005-.024-.012-.024-.02 0-.005.005-.01.016-.012a.034.034 0 0 1 .032 0c.035.01.07.027.104.048.035.019.052.056.052.112a.307.307 0 0 1-.02.104c-.016.043-.05.103-.1.18a3.381 3.381 0 0 1-.36.476.85.85 0 0 1-.168.148.689.689 0 0 1-.1.048.27.27 0 0 1-.096.02Zm1.68-1.552c-.038 0-.064-.012-.08-.036a.08.08 0 0 1-.016-.052c0-.043.02-.077.06-.104a.17.17 0 0 1 .08-.024c.04 0 .068.012.084.036a.08.08 0 0 1 .016.052c0 .043-.022.077-.064.104a.141.141 0 0 1-.08.024Zm-.696 1.54a.135.135 0 0 1-.068-.016c-.016-.01-.024-.03-.024-.06 0-.037.009-.081.028-.132a3.793 3.793 0 0 1 .128-.276 7.813 7.813 0 0 1 .204-.432 5.956 5.956 0 0 0-.384.456c-.008.01-.015.016-.02.016-.006 0-.008-.007-.008-.02 0-.021.006-.041.02-.06l.168-.216c.064-.08.121-.153.172-.22l.096-.136.128-.024a.262.262 0 0 0 .12-.044c.008-.008.016-.012.024-.012.005 0 .008.005.008.016.002.008 0 .017-.008.028a1.039 1.039 0 0 0-.084.136c-.04.072-.083.152-.128.24a8.701 8.701 0 0 1-.12.232c-.038.072-.07.141-.096.208a.455.455 0 0 0-.04.144c0 .037.018.056.056.056.034 0 .078-.021.132-.064.056-.043.112-.093.168-.152a5.636 5.636 0 0 0 .196-.224c.021-.024.034-.039.04-.044.005.005.008.015.008.028a.158.158 0 0 1-.02.056.631.631 0 0 1-.032.044c-.056.07-.118.141-.184.216-.067.072-.14.133-.22.184a.496.496 0 0 1-.26.072Zm.897-.004c-.08 0-.134-.019-.164-.056a.237.237 0 0 1-.044-.144c0-.075.016-.155.048-.24l.084-.2a47.518 47.518 0 0 0-.188.2c-.005 0-.008-.007-.008-.02 0-.021.007-.041.02-.06a2.78 2.78 0 0 1 .128-.152c.048-.053.095-.11.14-.168.054-.099.112-.213.176-.344l.204-.408c.072-.141.142-.27.208-.388.07-.12.13-.216.184-.288a.604.604 0 0 0 .128-.072c.043-.03.084-.056.124-.08a.246.246 0 0 1 .132-.04c.03 0 .05.008.064.024a.118.118 0 0 1 .032.056.16.16 0 0 1 .004.044.535.535 0 0 1-.064.224c-.04.088-.088.175-.144.26-.053.083-.1.15-.14.204a4.37 4.37 0 0 1-.632.712l-.192.176a1.58 1.58 0 0 0-.132.32.592.592 0 0 0-.028.172c0 .045.01.084.032.116.022.03.058.044.108.044h.024a.34.34 0 0 0 .176-.08c.054-.043.107-.092.16-.148a3.457 3.457 0 0 0 .228-.264c.019.019.018.043-.004.072-.018.027-.034.05-.048.068a5.89 5.89 0 0 1-.08.1 1.284 1.284 0 0 1-.308.284.402.402 0 0 1-.228.076Zm.168-.92c.083-.07.187-.168.312-.296a3.24 3.24 0 0 0 .376-.472c.014-.021.035-.057.064-.108.032-.05.064-.108.096-.172a1.98 1.98 0 0 0 .088-.192.482.482 0 0 0 .036-.164c0-.043-.012-.064-.036-.064-.03 0-.068.025-.116.076-.056.059-.12.145-.192.26-.07.112-.142.237-.22.376a34.781 34.781 0 0 0-.408.756Z" />  
    </g>

  
</svg>
