<svg fill="#000000" width="100" height="100" viewBox="0 0 100 100" xmlns="http://www.w3.org/2000/svg">
  <!-- Tienda más pequeña -->
  <g transform="translate(10,10) scale(2.8)">
    <path id="primary" d="M19,13v7a1,1,0,0,1-1,1H6a1,1,0,0,1-1-1V13" style="fill: none; stroke: #ffffff; stroke-linecap: round; stroke-linejoin: round; stroke-width: 2;"></path>
    <path id="primary-2" data-name="primary" d="M12,3h6.25a1,1,0,0,1,1,.73l1.58,5.55A5.22,5.22,0,0,1,21,10.75h0A2.25,2.25,0,0,1,18.75,13h0a2.25,2.25,0,0,1-2.25-2.25A2.25,2.25,0,0,1,14.25,13h0A2.25,2.25,0,0,1,12,10.75" style="fill: none; stroke: #ffffff; stroke-linecap: round; stroke-linejoin: round; stroke-width: 2;"></path>
    <path id="primary-3" data-name="primary" d="M12,3H5.75a1,1,0,0,0-1,.73L3.21,9.28A5.22,5.22,0,0,0,3,10.75H3A2.25,2.25,0,0,0,5.25,13h0A2.25,2.25,0,0,0,7.5,10.75,2.25,2.25,0,0,0,9.75,13h0A2.25,2.25,0,0,0,12,10.75" style="fill: none; stroke: #ffffff; stroke-linecap: round; stroke-linejoin: round; stroke-width: 2;"></path>
  </g>

  <!-- Lápiz (ícono de edición) -->
  <g transform="translate(58,58) scale(1.5)">
    <path d="M19.88,7,11,15.83,7,17l1.17-4,8.88-8.88A2.09,2.09,0,0,1,20,4,2.09,2.09,0,0,1,19.88,7Z" style="fill: none; stroke-width: 2;"></path>
    <path d="M21,21H3M20,4a2.09,2.09,0,0,0-2.95.12L8.17,13,7,17l4-1.17L19.88,7A2.09,2.09,0,0,0,20,4Z" style="fill: none; stroke: #ffffff; stroke-linecap: round; stroke-linejoin: round; stroke-width: 2;"></path>
  </g>
</svg>