<svg width="100" height="100" viewBox="0 0 100 100" xmlns="http://www.w3.org/2000/svg" aria-labelledby="title">
  <title>Gestión de Comercio</title>
  <!-- Color y estilo general -->
  <g stroke="#ffffff" fill="none" stroke-linecap="round" stroke-linejoin="round">
    <!-- Tienda centrada -->
    <g transform="translate(10,10) scale(3)" style="vector-effect: non-scaling-stroke;">
      <path d="M19,13v7a1,1,0,0,1-1,1H6a1,1,0,0,1-1-1V13" stroke-width="2"/>
      <path d="M12,3h6.25a1,1,0,0,1,1,.73l1.58,5.55A5.22,5.22,0,0,1,21,10.75h0A2.25,2.25,0,0,1,18.75,13h0a2.25,2.25,0,0,1-2.25-2.25A2.25,2.25,0,0,1,14.25,13h0A2.25,2.25,0,0,1,12,10.75" stroke-width="2"/>
      <path d="M12,3H5.75a1,1,0,0,0-1,.73L3.21,9.28A5.22,5.22,0,0,0,3,10.75H3A2.25,2.25,0,0,0,5.25,13h0A2.25,2.25,0,0,0,7.5,10.75,2.25,2.25,0,0,0,9.75,13h0A2.25,2.25,0,0,0,12,10.75" stroke-width="2"/>
    </g>

    <!-- Persona abajo a la derecha -->
    <g transform="translate(72,74) scale(1.6)" style="vector-effect: non-scaling-stroke;">
      <path d="M12.517 12.834v1.9a1.27 1.27 0 0 1-1.267 1.267h-9.5a1.27 1.27 0 0 1-1.267-1.267v-1.9A3.176 3.176 0 0 1 3.65 9.667h5.7a3.176 3.176 0 0 1 3.167 3.167zM3.264 5.48A3.236 3.236 0 1 1 6.5 8.717a3.236 3.236 0 0 1-3.236-3.236z" stroke-width="2"/>
    </g>
  </g>
</svg>
